<?xml version="1.0" standalone="no"?>
<!DOCTYPE svg PUBLIC "-//W3C//DTD SVG 20010904//EN"
 "http://www.w3.org/TR/2001/REC-SVG-20010904/DTD/svg10.dtd">
<svg version="1.0" xmlns="http://www.w3.org/2000/svg"
 width="1024.000000pt" height="1024.000000pt" viewBox="0 0 1024.000000 1024.000000"
 preserveAspectRatio="xMidYMid meet">

<g transform="translate(0.000000,1024.000000) scale(0.100000,-0.100000)"
fill="#000000" stroke="none">
<path d="M4186 8938 c-64 -12 -99 -38 -126 -93 -60 -125 -10 -278 105 -318 40
-14 40 -15 91 -153 28 -76 63 -165 78 -198 14 -32 26 -62 26 -66 0 -4 -27 -18
-59 -30 -72 -27 -196 -98 -271 -155 -181 -139 -320 -388 -350 -628 -5 -45 -10
-217 -10 -382 0 -260 2 -309 18 -366 36 -128 118 -226 228 -270 l59 -24 1215
0 c1019 0 1223 2 1265 14 74 21 148 73 192 133 55 77 63 93 70 143 3 25 10 48
14 51 16 9 11 613 -6 724 -22 146 -81 289 -170 415 -50 70 -169 187 -238 234
-60 41 -220 121 -241 121 -9 0 -19 6 -22 13 -4 12 48 153 81 217 8 16 29 67
46 113 26 73 34 85 57 90 77 17 140 92 149 178 8 80 -10 130 -66 188 l-49 50
-94 -2 c-84 -2 -99 -5 -135 -29 -102 -67 -118 -239 -31 -334 19 -21 18 -22
-73 -228 l-92 -206 -643 0 -642 0 -15 33 c-8 17 -36 82 -62 142 -25 61 -57
135 -71 166 -30 70 -30 70 1 99 47 44 69 167 41 233 -18 44 -72 95 -124 118
-47 21 -71 22 -146 7z m624 -1435 c65 -21 136 -84 175 -154 41 -76 41 -171 1
-252 -56 -110 -138 -162 -256 -162 -83 1 -126 14 -183 58 -179 139 -107 459
117 513 70 17 86 17 146 -3z m944 -3 c76 -24 154 -92 186 -162 27 -58 27 -186
1 -244 -48 -106 -136 -158 -266 -159 -98 0 -141 20 -209 96 -103 115 -97 280
16 400 45 48 77 66 135 77 69 14 65 14 137 -8z m96 -850 l0 -140 -648 0 -649
0 -7 131 c-3 72 -4 135 0 140 3 5 271 9 655 9 l649 0 0 -140z"/>
<path d="M4373 6153 l-293 -3 0 -115 0 -115 -758 0 c-467 0 -790 -4 -841 -10
-332 -42 -647 -281 -816 -620 -42 -83 -95 -278 -95 -347 0 -24 -4 -52 -10 -62
-10 -19 10 -233 30 -328 40 -187 148 -370 316 -535 166 -164 289 -230 549
-295 17 -4 389 -9 828 -10 l797 -4 0 -713 c0 -664 1 -722 20 -829 53 -312 223
-560 510 -746 143 -93 281 -139 512 -172 96 -13 170 -8 310 21 123 27 177 45
273 93 126 63 181 103 296 217 170 170 274 368 313 600 3 14 5 364 5 778 l1
752 839 0 c910 0 907 0 1069 56 121 41 231 103 325 182 120 99 271 291 324
410 60 135 103 323 103 452 0 72 -24 229 -48 317 -57 202 -207 425 -381 563
-115 91 -315 186 -434 205 -23 4 -51 10 -62 13 -11 4 -405 9 -875 12 l-855 5
-3 118 -3 117 -827 -2 c-455 -2 -959 -4 -1119 -5z"/>
</g>
</svg>